<mxfile host="app.diagrams.net" modified="2020-11-02T02:25:54.269Z" agent="5.0 (Macintosh; Intel Mac OS X 10_15_6) AppleWebKit/605.1.15 (KHTML, like Gecko) Version/13.1.2 Safari/605.1.15" etag="cvVTRO00NKteaED4JBkH" version="13.8.6" type="github">
  <diagram id="h8FXAodKIU7jkOwaJEkq" name="Page-1">
    <mxGraphModel dx="1042" dy="619" grid="1" gridSize="10" guides="1" tooltips="1" connect="1" arrows="1" fold="1" page="1" pageScale="1" pageWidth="827" pageHeight="1169" math="0" shadow="0">
      <root>
        <mxCell id="0" />
        <mxCell id="1" parent="0" />
        <mxCell id="ibIghVrPZ854w7-MWl2v-3" value="" style="endArrow=block;dashed=1;endFill=0;endSize=12;html=1;exitX=0.5;exitY=0;exitDx=0;exitDy=0;entryX=0.5;entryY=1;entryDx=0;entryDy=0;" edge="1" parent="1" source="ibIghVrPZ854w7-MWl2v-13" target="ibIghVrPZ854w7-MWl2v-12">
          <mxGeometry width="160" relative="1" as="geometry">
            <mxPoint x="240" y="110" as="sourcePoint" />
            <mxPoint x="300" y="220" as="targetPoint" />
          </mxGeometry>
        </mxCell>
        <mxCell id="ibIghVrPZ854w7-MWl2v-12" value="&lt;p style=&quot;margin: 0px ; margin-top: 4px ; text-align: center&quot;&gt;&lt;i&gt;&amp;lt;&amp;lt;Interface&amp;gt;&amp;gt;&lt;/i&gt;&lt;/p&gt;&lt;p style=&quot;margin: 0px ; margin-top: 4px ; text-align: center&quot;&gt;&lt;span style=&quot;font-family: &amp;#34;menlo&amp;#34; , monospace ; font-size: 9.8pt ; background-color: rgb(255 , 255 , 255)&quot;&gt;BootstrapContext&lt;/span&gt;&lt;/p&gt;&lt;p style=&quot;margin: 0px ; margin-left: 4px&quot;&gt;&lt;br&gt;&lt;/p&gt;&lt;hr size=&quot;1&quot;&gt;&lt;p style=&quot;margin: 0px ; margin-left: 4px&quot;&gt;&lt;/p&gt;&amp;nbsp;+&amp;nbsp;&lt;span style=&quot;font-family: &amp;#34;menlo&amp;#34; , monospace ; font-size: 9.8pt ; background-color: rgb(255 , 255 , 255) ; color: rgb(0 , 98 , 122)&quot;&gt;getTestClass&lt;/span&gt;&lt;span style=&quot;color: rgb(8 , 8 , 8) ; font-family: &amp;#34;menlo&amp;#34; , monospace ; font-size: 9.8pt ; background-color: rgb(255 , 255 , 255)&quot;&gt;()&lt;/span&gt;&lt;span style=&quot;color: rgb(8 , 8 , 8) ; font-family: &amp;#34;menlo&amp;#34; , monospace ; font-size: 13.066666603088379px ; background-color: rgb(255 , 255 , 255)&quot;&gt;:&amp;nbsp;&lt;/span&gt;&lt;span style=&quot;font-family: &amp;#34;menlo&amp;#34; , monospace ; font-size: 9.8pt ; background-color: rgb(255 , 255 , 255)&quot;&gt;C&lt;/span&gt;&lt;span style=&quot;font-family: &amp;#34;menlo&amp;#34; , monospace ; font-size: 9.8pt ; background-color: rgb(255 , 255 , 255)&quot;&gt;lass&lt;/span&gt;&lt;font color=&quot;#080808&quot; face=&quot;menlo, monospace&quot; size=&quot;2&quot;&gt;&lt;span style=&quot;background-color: rgb(255 , 255 , 255)&quot;&gt;&amp;lt;?&amp;gt;&lt;/span&gt;&lt;span style=&quot;background-color: rgb(255 , 255 , 255)&quot;&gt;&lt;br&gt;&lt;/span&gt;&lt;/font&gt;&lt;br&gt;&lt;p style=&quot;margin: 0px ; margin-left: 4px&quot;&gt;+&amp;nbsp;&lt;span style=&quot;font-family: &amp;#34;menlo&amp;#34; , monospace ; font-size: 9.8pt ; background-color: rgb(255 , 255 , 255) ; color: rgb(0 , 98 , 122)&quot;&gt;getCacheAwareContextLoaderDelegate&lt;/span&gt;&lt;span style=&quot;color: rgb(8 , 8 , 8) ; font-family: &amp;#34;menlo&amp;#34; , monospace ; font-size: 9.8pt ; background-color: rgb(255 , 255 , 255)&quot;&gt;():&amp;nbsp;&lt;/span&gt;&lt;/p&gt;&lt;span style=&quot;font-family: &amp;#34;menlo&amp;#34; , monospace ; font-size: 13.066666603088379px ; background-color: rgb(255 , 255 , 255)&quot;&gt;CacheAwareContextLoaderDelegate&lt;/span&gt;" style="verticalAlign=top;align=left;overflow=fill;fontSize=12;fontFamily=Helvetica;html=1;" vertex="1" parent="1">
          <mxGeometry x="80" y="20" width="360" height="180" as="geometry" />
        </mxCell>
        <mxCell id="ibIghVrPZ854w7-MWl2v-13" value="&lt;p style=&quot;margin: 0px ; margin-top: 4px ; text-align: center&quot;&gt;&lt;span style=&quot;font-family: &amp;#34;menlo&amp;#34; , monospace ; font-size: 9.8pt ; background-color: rgb(255 , 255 , 255)&quot;&gt;&lt;b&gt;DefaultBootstrapContext&lt;/b&gt;&lt;/span&gt;&lt;/p&gt;&lt;hr size=&quot;1&quot;&gt;&lt;p style=&quot;margin: 0px ; margin-left: 4px&quot;&gt;+ field: Type&lt;/p&gt;&lt;hr size=&quot;1&quot;&gt;&lt;p style=&quot;margin: 0px ; margin-left: 4px&quot;&gt;+ method(): Type&lt;/p&gt;" style="verticalAlign=top;align=left;overflow=fill;fontSize=12;fontFamily=Helvetica;html=1;" vertex="1" parent="1">
          <mxGeometry x="80" y="240" width="360" height="200" as="geometry" />
        </mxCell>
      </root>
    </mxGraphModel>
  </diagram>
</mxfile>
